<?xml version="1.0" encoding="utf-8"?>
<!-- Generator: Adobe Illustrator 16.0.0, SVG Export Plug-In . SVG Version: 6.00 Build 0)  -->
<!DOCTYPE svg PUBLIC "-//W3C//DTD SVG 1.1//EN" "http://www.w3.org/Graphics/SVG/1.1/DTD/svg11.dtd">
<svg version="1.1" id="Layer_1" xmlns="http://www.w3.org/2000/svg" xmlns:xlink="http://www.w3.org/1999/xlink" x="0px" y="0px"
	 width="1024px" height="264px" viewBox="0 0 1024 264" enable-background="new 0 0 1024 264" xml:space="preserve">
<circle fill="#0093A8" cx="119.393" cy="135.671" r="90.155"/>
<path fill="#B11F24" d="M401.074,135.301c0,49.796-40.365,90.162-90.156,90.162c-49.795,0-90.159-40.366-90.159-90.162
	c0-49.79,40.363-90.158,90.159-90.158C360.708,45.148,401.074,85.515,401.074,135.301z"/>
<circle fill="#429444" cx="502.46" cy="133.833" r="90.158"/>
<path fill="#F5A11E" d="M783.094,133.695c0,49.794-40.366,90.162-90.162,90.162c-49.788,0-90.162-40.368-90.162-90.162
	c0-49.79,40.374-90.156,90.162-90.156C742.728,43.543,783.094,83.909,783.094,133.695z"/>
<path fill="#FFFFFF" d="M94.591,108.291c4.662-0.745,10.735-1.164,17.146-1.164c10.654,0,17.562,1.922,22.972,5.998
	c5.827,4.328,9.489,11.243,9.489,21.144c0,10.735-3.914,18.143-9.324,22.714c-5.91,4.917-14.897,7.247-25.883,7.247
	c-6.576,0-11.237-0.41-14.397-0.838L94.591,108.291L94.591,108.291z M107.324,154.066c1.083,0.248,2.833,0.248,4.411,0.248
	c11.484,0.084,18.976-6.238,18.976-19.639c0.085-11.653-6.742-17.813-17.644-17.813c-2.831,0-4.659,0.248-5.743,0.496V154.066z"/>
<path fill="#FFFFFF" d="M317.283,107.256v56.099H304.55v-56.099H317.283z"/>
<path fill="#FFFFFF" d="M494.013,147.488l-3.994,14.402H476.87l17.143-56.099h16.645l17.398,56.099h-13.653l-4.33-14.402H494.013z
	 M508.243,137.998l-3.496-11.899c-0.997-3.327-1.994-7.492-2.829-10.815h-0.166c-0.835,3.331-1.667,7.57-2.579,10.815l-3.327,11.899
	H508.243z"/>
<path fill="#FFFFFF" d="M675.413,105.649h12.735v45.441h22.303v10.658h-35.038V105.649L675.413,105.649z"/>
<g enable-background="new    ">
	<path fill="#020202" d="M851.15,166.456c0,1.179-0.052,2.164-0.152,2.956c-0.102,0.793-0.255,1.433-0.457,1.92
		c-0.204,0.488-0.457,0.845-0.762,1.067c-0.306,0.224-0.641,0.335-1.006,0.335h-39.62c-1.341,0-2.469-0.396-3.383-1.188
		c-0.914-0.793-1.371-2.082-1.371-3.871V98.919c0-1.788,0.457-3.078,1.371-3.871s2.042-1.188,3.383-1.188h39.376
		c0.366,0,0.69,0.102,0.976,0.305c0.283,0.204,0.527,0.559,0.731,1.067c0.202,0.508,0.354,1.158,0.457,1.95
		c0.101,0.792,0.152,1.798,0.152,3.017c0,1.138-0.052,2.103-0.152,2.896c-0.103,0.792-0.255,1.433-0.457,1.92
		c-0.204,0.488-0.448,0.844-0.731,1.067c-0.285,0.224-0.609,0.335-0.976,0.335h-28.16v19.261h23.832
		c0.366,0,0.701,0.113,1.006,0.335c0.305,0.224,0.559,0.569,0.763,1.036c0.202,0.468,0.354,1.097,0.457,1.89
		c0.101,0.792,0.152,1.758,0.152,2.895c0,1.179-0.052,2.155-0.152,2.926c-0.103,0.773-0.255,1.393-0.457,1.859
		c-0.204,0.468-0.458,0.804-0.763,1.006c-0.305,0.204-0.64,0.305-1.006,0.305h-23.832v22.248h28.404c0.365,0,0.7,0.112,1.006,0.336
		c0.305,0.224,0.558,0.579,0.762,1.066c0.202,0.487,0.355,1.128,0.457,1.92C851.099,164.292,851.15,165.278,851.15,166.456z"/>
	<path fill="#020202" d="M923.807,170.662c0,0.447-0.082,0.822-0.243,1.128c-0.163,0.305-0.549,0.559-1.158,0.762
		c-0.61,0.202-1.504,0.345-2.683,0.427c-1.179,0.081-2.783,0.121-4.815,0.121c-1.706,0-3.068-0.04-4.083-0.121
		c-1.017-0.082-1.819-0.234-2.408-0.457c-0.59-0.224-1.006-0.508-1.249-0.854c-0.244-0.345-0.448-0.762-0.61-1.25l-7.07-17.615
		c-0.854-1.99-1.687-3.758-2.499-5.303c-0.813-1.544-1.717-2.835-2.712-3.871c-0.997-1.036-2.145-1.817-3.444-2.347
		c-1.301-0.527-2.804-0.792-4.511-0.792h-4.998v30.05c0,0.406-0.132,0.772-0.396,1.098s-0.7,0.589-1.311,0.792
		c-0.609,0.204-1.423,0.365-2.438,0.487c-1.017,0.122-2.316,0.183-3.901,0.183c-1.545,0-2.834-0.061-3.87-0.183
		s-1.859-0.283-2.469-0.487c-0.609-0.203-1.036-0.467-1.28-0.792c-0.243-0.325-0.365-0.691-0.365-1.098v-71.62
		c0-1.788,0.457-3.078,1.371-3.871s2.042-1.188,3.383-1.188h20.42c2.072,0,3.778,0.041,5.12,0.122
		c1.341,0.082,2.56,0.183,3.657,0.305c3.169,0.447,6.023,1.219,8.563,2.316c2.539,1.097,4.693,2.53,6.461,4.297
		s3.118,3.861,4.054,6.278c0.934,2.418,1.401,5.191,1.401,8.32c0,2.642-0.335,5.05-1.006,7.223c-0.67,2.174-1.655,4.114-2.956,5.821
		c-1.301,1.707-2.905,3.19-4.815,4.449c-1.91,1.26-4.083,2.277-6.521,3.047c1.178,0.57,2.285,1.261,3.322,2.073
		c1.036,0.813,2.011,1.798,2.926,2.956c0.914,1.158,1.776,2.479,2.59,3.962c0.813,1.483,1.605,3.16,2.377,5.028l6.645,15.543
		c0.609,1.545,1.015,2.673,1.219,3.383C923.705,169.697,923.807,170.255,923.807,170.662z M903.144,117.145
		c0-2.6-0.59-4.794-1.768-6.583c-1.179-1.788-3.108-3.048-5.79-3.779c-0.813-0.203-1.737-0.366-2.773-0.487
		c-1.036-0.122-2.469-0.183-4.298-0.183h-7.192v22.37h8.168c2.275,0,4.267-0.274,5.974-0.823c1.706-0.548,3.128-1.32,4.267-2.316
		c1.137-0.995,1.99-2.184,2.56-3.566C902.859,120.396,903.144,118.851,903.144,117.145z"/>
	<path fill="#020202" d="M989.575,117.815c0,4.43-0.691,8.351-2.072,11.764c-1.382,3.413-3.394,6.289-6.034,8.625
		c-2.642,2.337-5.882,4.114-9.722,5.334c-3.841,1.219-8.361,1.828-13.563,1.828h-6.583v25.174c0,0.406-0.132,0.772-0.396,1.098
		s-0.7,0.589-1.311,0.792c-0.609,0.204-1.423,0.365-2.438,0.487c-1.017,0.122-2.316,0.183-3.901,0.183
		c-1.545,0-2.834-0.061-3.87-0.183s-1.859-0.283-2.469-0.487c-0.609-0.203-1.036-0.467-1.28-0.792
		c-0.243-0.325-0.365-0.691-0.365-1.098V99.59c0-1.91,0.497-3.342,1.493-4.297c0.995-0.954,2.306-1.432,3.932-1.432h18.591
		c1.868,0,3.646,0.071,5.333,0.213c1.686,0.143,3.708,0.448,6.064,0.914c2.356,0.468,4.744,1.332,7.162,2.591
		c2.418,1.26,4.48,2.855,6.188,4.785c1.706,1.931,3.007,4.186,3.9,6.766C989.128,111.71,989.575,114.605,989.575,117.815z
		 M972.813,118.973c0-2.763-0.487-5.038-1.463-6.827c-0.976-1.788-2.175-3.109-3.597-3.962c-1.423-0.853-2.916-1.391-4.479-1.615
		c-1.564-0.223-3.181-0.335-4.846-0.335h-6.827v26.758h7.192c2.561,0,4.703-0.345,6.431-1.036c1.727-0.69,3.14-1.655,4.236-2.895
		c1.098-1.239,1.93-2.722,2.499-4.45C972.528,122.885,972.813,121.005,972.813,118.973z"/>
</g>
</svg>
