<?xml version="1.0" encoding="utf-8"?>
<!-- Generator: Adobe Illustrator 26.0.1, SVG Export Plug-In . SVG Version: 6.00 Build 0)  -->
<svg version="1.1" id="Layer_1" xmlns="http://www.w3.org/2000/svg" xmlns:xlink="http://www.w3.org/1999/xlink" x="0px" y="0px"
	 viewBox="0 0 300 406" style="enable-background:new 0 0 300 406;" xml:space="preserve">
<g>
	<path style="fill:#518DF7;" d="M266.99,396c-79.12,0-158.25,0-237.37,0c-14.47-4.34-19.82-15.07-19.81-25.91
		C9.97,259.61,9.9,149.13,9.94,38.65c0-2.82,0.11-5.76,0.91-8.43c3.39-11.24,12.43-17.53,24.91-17.53
		c47.77-0.02,95.53-0.02,143.3,0.02c1.29,0,2.57,0.48,3.86,0.73c-0.17,0.97-0.47,1.94-0.47,2.9c-0.01,26.32-0.02,52.65,0.06,78.97
		c0.01,1.69,0.49,3.43,1.05,5.05c3.23,9.24,9.97,14.63,19.17,17.27c19.69,8.16,39.36,16.36,59.07,24.45
		c8.52,3.5,17.14,6.75,25.72,10.12c-0.03,32.55-0.07,65.1-0.08,97.65c-0.01,39.66-0.02,79.32,0.01,118.98
		c0,5.68-1.09,10.98-4.21,15.84C279.38,390.74,273.6,393.94,266.99,396z M218.33,240.43c-31.37-0.04-62.74-0.09-94.1-0.1
		c-15.31-0.01-30.62,0.07-45.93,0.1c-0.21,0.2-0.41,0.39-0.62,0.59c0,4.93,0,9.86,0,14.78c47.32,0,94.22,0,141.27,0
		c0-5.11,0-9.95,0-14.78C218.74,240.83,218.53,240.63,218.33,240.43z M77.77,291.06c47.42,0,94.47,0,141.63,0
		c0-5.25,0-10.26,0-15.21c-47.38,0-94.43,0-141.63,0C77.77,280.98,77.77,285.81,77.77,291.06z M218.96,205.42
		c-47.32,0-94.26,0-141.17,0c0,5.25,0,10.18,0,15.14c47.19,0,94.13,0,141.17,0C218.96,215.4,218.96,210.56,218.96,205.42z
		 M77.85,326.2c33.67,0,67.11,0,100.52,0c0-5.26,0-10.18,0-15.18c-33.63,0-66.99,0-100.52,0C77.85,316.21,77.85,321.13,77.85,326.2z
		"/>
	<path style="fill:#ABD0FB;" d="M182.93,13.45c1.06,0.84,2.21,1.59,3.16,2.54c32.84,32.8,65.66,65.61,98.47,98.44
		c0.96,0.96,1.78,2.06,2.67,3.09c-4.36,0.03-8.72,0.09-13.08,0.1c-23.8,0.01-47.6,0.01-71.39,0.02c-9.2-2.64-15.95-8.03-19.17-17.27
		c-0.56-1.61-1.05-3.36-1.05-5.05c-0.08-26.32-0.08-52.65-0.06-78.97C182.46,15.38,182.76,14.42,182.93,13.45z"/>
	<path style="fill:#FEFEFE;" d="M77.77,291.06c0-5.26,0-10.08,0-15.21c47.2,0,94.25,0,141.63,0c0,4.95,0,9.96,0,15.21
		C172.24,291.06,125.19,291.06,77.77,291.06z"/>
	<path style="fill:#FEFEFE;" d="M218.96,205.42c0,5.14,0,9.99,0,15.14c-47.04,0-93.98,0-141.17,0c0-4.96,0-9.9,0-15.14
		C124.7,205.42,171.64,205.42,218.96,205.42z"/>
	<path style="fill:#FEFEFE;" d="M78.29,240.43c15.31-0.04,30.62-0.11,45.93-0.1c31.37,0.01,62.74,0.07,94.1,0.1
		c0.21,0.2,0.41,0.4,0.62,0.59c0,4.84,0,9.67,0,14.78c-47.05,0-93.95,0-141.27,0c0-4.92,0-9.85,0-14.78
		C77.88,240.83,78.08,240.63,78.29,240.43z"/>
	<path style="fill:#FEFEFE;" d="M77.85,326.2c0-5.08,0-10,0-15.18c33.54,0,66.89,0,100.52,0c0,5,0,9.92,0,15.18
		C144.96,326.2,111.51,326.2,77.85,326.2z"/>
	<path style="fill:#3A5BBC;" d="M202.75,117.64c23.8,0,47.6,0,71.39-0.02c4.36,0,8.72-0.06,13.08-0.1c0.16,2.96,0.46,5.92,0.47,8.88
		c0.01,8.6-0.09,17.2-0.15,25.81c-8.58-3.37-17.2-6.62-25.72-10.12C242.1,134,222.43,125.79,202.75,117.64z"/>
	<path style="fill:#EBF2FD;" d="M78.29,240.43c-0.21,0.2-0.41,0.39-0.62,0.59C77.88,240.83,78.08,240.63,78.29,240.43z"/>
	<path style="fill:#EBF2FD;" d="M218.94,241.03c-0.21-0.2-0.41-0.4-0.62-0.59C218.53,240.63,218.74,240.83,218.94,241.03z"/>
</g>
</svg>
